<svg xmlns="http://www.w3.org/2000/svg" viewBox="0 0 512 512" style="height: 512px; width: 512px;"><circle cx="256" cy="256" r="256" fill="#000000" fill-opacity="1"></circle><g class="" transform="translate(0,0)" style=""><g transform="translate(25.6, 25.6) scale(0.9, 0.9) rotate(0, 256, 256) skewX(0) skewY(0)"><path d="M284.12 20.73C314.542 39.604 339.774 65.758 359.46 95.482C286.312 29.484 153.417 13.572 60.44 87.309C104.595 67.691 152.4 67.542 198.453 78.505C114.99 82.516 33.898 136.31 18.56 229.29C46.922 183.575 90.704 149.44 139.45 130.008C47.783 181.433 -0.934 307.458 68.2 403.91C56.37 353.408 62.62 300.757 81.635 253.82C63.615 353.972 122.807 458.87 226.471 492.1C128.403 411.726 100.725 316.85 114.413 242.486C120.067 170.811 180.181 114.236 253.286 114.236C330.114 114.236 392.596 176.719 392.596 253.546C392.596 330.376 330.114 392.856 253.286 392.856C219.92 392.856 189.264 381.066 165.253 361.439C176.513 379.057 190.227 393.341 205.599 404.474C248.6 446.93 327.288 484.91 389.92 472.61C364.862 463.424 343.405 452.675 326.955 437.95C378.479 440.68 436.705 429.208 472.859 397.656C452.263 401.24 433.102 402.886 415.379 401.258C454.054 375.214 483.539 335.018 492.032 283.538C463.669 329.251 419.887 363.386 371.14 382.818C462.81 331.395 511.527 205.37 442.39 108.916C454.22 159.418 447.973 212.071 428.957 259.008C454.1 158.858 399.182 39.712 284.12 20.728Z" class="" fill="#bf4342" fill-opacity="1"></path><path d="M253.285 132.926C251.385 132.926 249.495 132.974 247.615 133.061L246.211 152.015C238.695 152.595 231.167 154.027 223.759 156.351L215.379 138.987C205.783 142.151 196.723 146.477 188.369 151.812L196.839 169.359C190.369 173.753 184.529 178.806 179.376 184.385L163.136 173.332C156.516 180.769 150.806 189.032 146.176 197.952L162.552 209.098C159.172 216.088 156.599 223.448 154.882 231.022L135.045 229.552C133.485 237.306 132.665 245.33 132.665 253.549C132.665 255.499 132.715 257.439 132.807 259.365L152.625 260.835C153.177 268.422 154.595 276.025 156.922 283.505L138.959 292.175C142.182 301.748 146.574 310.775 151.961 319.098L169.868 310.455C174.23 316.912 179.246 322.741 184.786 327.893L173.669 344.233C181.149 350.801 189.449 356.461 198.401 361.033L209.444 344.806C216.429 348.211 223.786 350.806 231.358 352.546L229.923 371.911C237.48 373.388 245.29 374.169 253.286 374.169C255.456 374.169 257.609 374.109 259.749 373.997L261.165 354.892C268.902 354.352 276.655 352.916 284.282 350.532L292.547 367.654C302.099 364.379 311.105 359.938 319.397 354.504L311.217 337.551C317.784 333.101 323.7 327.974 328.912 322.308L344.307 332.782C350.843 325.277 356.461 316.95 360.994 307.977L345.684 297.559C349.038 290.585 351.591 283.249 353.291 275.699L371.618 277.057C373.114 269.455 373.905 261.597 373.905 253.549C373.905 251.431 373.85 249.326 373.743 247.234L355.507 245.884C354.939 238.217 353.483 230.536 351.103 222.982L367.638 215C364.422 205.425 360.036 196.394 354.655 188.068L338.06 196.078C333.578 189.498 328.412 183.578 322.707 178.365L333.121 163.063C325.658 156.475 317.371 150.795 308.431 146.203L297.901 161.673C290.921 158.345 283.584 155.811 276.034 154.136L277.427 135.336C269.629 133.758 261.557 132.929 253.287 132.929Z" class="" fill="#466362" fill-opacity="1"></path><path d="M254.031 174.729C270.727 174.961 286.541 180.567 299.458 190.142L265.878 219.089C263.011 218.089 260.032 217.466 257.021 217.243C248.253 216.593 239.238 219.263 232.111 225.407C222.535 233.662 218.673 246.207 220.888 257.874L183.808 289.844C180.178 283.038 177.5 275.578 175.983 267.604C167.913 225.146 195.786 184.184 238.243 176.112C243.55 175.102 248.833 174.655 254.033 174.728Z" class="" fill="#000000" fill-opacity="1"></path><path d="M322.765 217.813C325.955 224.163 328.341 231.045 329.733 238.373C337.805 280.829 309.931 321.791 267.473 329.863C245.791 333.983 224.511 328.715 207.79 316.933L245.523 284.401C256.149 287.251 267.98 284.998 276.873 277.331C285.766 269.664 289.738 258.295 288.483 247.366L322.763 217.813Z" class="" fill="#000000" fill-opacity="1"></path><path d="M254.159 235.728C254.656 235.715 255.153 235.728 255.647 235.764C259.607 236.057 263.453 237.887 266.3 241.189C271.993 247.795 271.274 257.483 264.67 263.177C258.065 268.87 248.378 268.151 242.684 261.547C236.99 254.941 237.708 245.255 244.314 239.561C247.202 237.071 250.681 235.808 254.158 235.728Z" class="selected" fill="#000000" fill-opacity="1"></path></g></g></svg>